<svg width="30" height="30" viewBox="0 0 30 30" fill="none" xmlns="http://www.w3.org/2000/svg">
<path fill-rule="evenodd" clip-rule="evenodd" d="M15 2.5C11.605 2.5 11.18 2.515 9.84625 2.575C8.51625 2.63625 7.6075 2.8475 6.8125 3.15625C5.97811 3.46981 5.22219 3.96166 4.5975 4.5975C3.9617 5.22222 3.46984 5.97813 3.15625 6.8125C2.8475 7.6075 2.63625 8.51625 2.575 9.84625C2.51375 11.18 2.5 11.605 2.5 15C2.5 18.395 2.51375 18.82 2.575 20.1537C2.63625 21.4837 2.8475 22.3925 3.15625 23.1875C3.46988 24.0219 3.96173 24.7778 4.5975 25.4025C5.22224 26.0383 5.97814 26.5301 6.8125 26.8438C7.6075 27.1525 8.51625 27.3638 9.84625 27.425C11.18 27.485 11.605 27.5 15 27.5C18.395 27.5 18.82 27.485 20.1537 27.425C21.4837 27.3638 22.3925 27.1525 23.1875 26.8438C24.0219 26.5302 24.7778 26.0383 25.4025 25.4025C26.0383 24.7778 26.5302 24.0219 26.8438 23.1875C27.1525 22.3925 27.3638 21.4837 27.425 20.1537C27.485 18.82 27.5 18.395 27.5 15C27.5 11.605 27.485 11.18 27.425 9.84625C27.3638 8.51625 27.1525 7.6075 26.8438 6.8125C26.5302 5.97813 26.0383 5.22222 25.4025 4.5975C24.7778 3.96166 24.0219 3.46981 23.1875 3.15625C22.3925 2.8475 21.4837 2.63625 20.1537 2.575C18.82 2.515 18.395 2.5 15 2.5ZM15 4.7525C18.3375 4.7525 18.7325 4.765 20.05 4.825C21.27 4.88125 21.9313 5.08375 22.3725 5.255C22.955 5.4825 23.3725 5.75375 23.81 6.19C24.2475 6.6275 24.5175 7.045 24.745 7.6275C24.915 8.06875 25.12 8.73 25.175 9.94875C25.235 11.2675 25.2475 11.6613 25.2475 15C25.2475 18.3375 25.235 18.7325 25.175 20.05C25.1187 21.27 24.915 21.9313 24.745 22.3725C24.5446 22.9155 24.2251 23.4067 23.81 23.81C23.3725 24.2475 22.955 24.5175 22.3725 24.745C21.9313 24.915 21.27 25.12 20.0513 25.175C18.7338 25.235 18.3387 25.2475 15 25.2475C11.6625 25.2475 11.2662 25.235 9.95 25.175C8.73 25.1187 8.06875 24.915 7.6275 24.745C7.08448 24.5447 6.59327 24.2252 6.19 23.81C5.77482 23.4067 5.45532 22.9155 5.255 22.3725C5.08375 21.9313 4.88 21.27 4.825 20.0513C4.765 18.7325 4.7525 18.3387 4.7525 15C4.7525 11.6625 4.765 11.2675 4.825 9.95C4.88125 8.73 5.08375 8.06875 5.255 7.6275C5.4825 7.045 5.75375 6.6275 6.19 6.19C6.6275 5.7525 7.045 5.4825 7.6275 5.255C8.06875 5.08375 8.73 4.88 9.94875 4.825C11.2675 4.765 11.6613 4.7525 15 4.7525ZM15 19.1663C13.895 19.1663 12.8353 18.7273 12.054 17.946C11.2727 17.1647 10.8337 16.105 10.8337 15C10.8337 13.895 11.2727 12.8353 12.054 12.054C12.8353 11.2727 13.895 10.8337 15 10.8337C16.105 10.8337 17.1647 11.2727 17.946 12.054C18.7273 12.8353 19.1663 13.895 19.1663 15C19.1663 16.105 18.7273 17.1647 17.946 17.946C17.1647 18.7273 16.105 19.1663 15 19.1663ZM15 8.58125C14.1571 8.58125 13.3224 8.74728 12.5437 9.06985C11.7649 9.39242 11.0573 9.86522 10.4613 10.4613C9.86522 11.0573 9.39242 11.7649 9.06985 12.5437C8.74728 13.3224 8.58125 14.1571 8.58125 15C8.58125 15.8429 8.74728 16.6776 9.06985 17.4563C9.39242 18.2351 9.86522 18.9427 10.4613 19.5387C11.0573 20.1348 11.7649 20.6076 12.5437 20.9302C13.3224 21.2527 14.1571 21.4188 15 21.4188C16.7024 21.4188 18.335 20.7425 19.5387 19.5387C20.7425 18.335 21.4188 16.7024 21.4188 15C21.4188 13.2976 20.7425 11.665 19.5387 10.4613C18.335 9.25751 16.7024 8.58125 15 8.58125ZM23.1725 8.3275C23.1725 8.52448 23.1337 8.71954 23.0583 8.90153C22.9829 9.08351 22.8724 9.24887 22.7332 9.38816C22.5939 9.52745 22.4285 9.63794 22.2465 9.71332C22.0645 9.7887 21.8695 9.8275 21.6725 9.8275C21.4755 9.8275 21.2805 9.7887 21.0985 9.71332C20.9165 9.63794 20.7511 9.52745 20.6118 9.38816C20.4726 9.24887 20.3621 9.08351 20.2867 8.90153C20.2113 8.71954 20.1725 8.52448 20.1725 8.3275C20.1725 7.92968 20.3305 7.54814 20.6118 7.26684C20.8931 6.98554 21.2747 6.8275 21.6725 6.8275C22.0703 6.8275 22.4519 6.98554 22.7332 7.26684C23.0145 7.54814 23.1725 7.92968 23.1725 8.3275Z" fill="white"/>
</svg>
